<svg width="4000" height="4000" viewBox="0 0 4000 4000" fill="none" xmlns="http://www.w3.org/2000/svg">
<path fill-rule="evenodd" clip-rule="evenodd" d="M994.769 2551.45C927.926 2551.45 870.841 2599.69 859.689 2665.59L837.392 2797.37C823.246 2880.97 887.678 2957.22 972.472 2957.22H3026.57C3111.36 2957.22 3175.79 2880.97 3161.65 2797.37L3139.35 2665.59C3128.2 2599.69 3071.11 2551.45 3004.27 2551.45H994.769ZM2690.46 2608.44H1308.58L1266.24 2872.77H2732.8L2690.46 2608.44Z" fill="#20349B"/>
<path fill-rule="evenodd" clip-rule="evenodd" d="M1016 1084.77C940.341 1084.77 879.004 1146.11 879.004 1221.77V2419.82C879.004 2495.49 940.341 2556.82 1016 2556.82H2983.04C3058.7 2556.82 3120.04 2495.49 3120.04 2419.82V1221.77C3120.04 1146.11 3058.7 1084.77 2983.04 1084.77H1016ZM2942.21 1234.45H1056.83V2383.12H2942.21V1234.45Z" fill="#20349B"/>
<path d="M2891.02 1236.43C3499.82 755.85 3500.01 755.706 3402.87 626.245C3305.73 496.784 3302.62 499.243 2690.52 982.422C2409.58 1204.19 2175.72 1481.09 2231.08 1551.23C2286.45 1621.37 2631.89 1440.98 2891.02 1236.43Z" fill="#20349B"/>
<path d="M2268.5 1750.05C2371.62 1689.89 2414.75 1571.76 2364.83 1486.19C2314.92 1400.62 2190.86 1380.02 2087.74 1440.17C1915.28 1540.78 2012.79 1714.33 1809.01 1898.6C1809.01 1898.6 2165.39 1810.2 2268.5 1750.05Z" fill="#20349B"/>
</svg>
