<svg width="100" height="100" viewBox="0 0 100 100" fill="none" xmlns="http://www.w3.org/2000/svg">
<path d="M55.5468 58.6321C52.1558 61.3425 47.2724 61.3425 43.8814 58.6321L31.1752 48.4761L3 72.7196V75.7525C3 80.2082 6.70722 83.8202 11.2803 83.8202H88.1479C92.721 83.8202 96.4282 80.2082 96.4282 75.7525V72.7196L68.253 48.4761L55.5468 58.6321Z" fill="#20349B"/>
<path d="M72.5572 45.0358L96.4282 65.5757V25.9558L72.5572 45.0358Z" fill="#20349B"/>
<path d="M3 65.5757L26.871 45.0358L3 25.9558V65.5757Z" fill="#20349B"/>
<path d="M47.3671 54.4922L4.47738 20.2107C5.97295 18.1152 8.46223 16.7436 11.2803 16.7436H88.1479C90.966 16.7436 93.4552 18.1152 94.9508 20.2107L52.0611 54.4922C50.6966 55.5828 48.7316 55.5828 47.3671 54.4922Z" fill="#20349B"/>
</svg>
