<svg width="4000" height="4000" viewBox="0 0 4000 4000" fill="none" xmlns="http://www.w3.org/2000/svg">
<path fill-rule="evenodd" clip-rule="evenodd" d="M604.305 827C528.642 827 467.305 888.337 467.305 964V2703.54C467.305 2779.2 528.642 2840.54 604.305 2840.54H3395.69C3471.36 2840.54 3532.69 2779.2 3532.69 2703.54V964C3532.69 888.337 3471.36 827 3395.69 827H604.305ZM3412.48 956.602H587.515V2678.07H3412.48V956.602Z" fill="#20349B"/>
<path fill-rule="evenodd" clip-rule="evenodd" d="M1302.98 2962.63C1210.75 2962.63 1135.98 3037.4 1135.98 3129.63V3173H2864.02V3129.63C2864.02 3037.4 2789.25 2962.63 2697.02 2962.63H1302.98Z" fill="#20349B"/>
<rect x="1585.84" y="2761.65" width="828.332" height="258.267" fill="#20349B"/>
<path d="M1119.14 1675.42C1124.48 1672.99 1132.74 1670.32 1143.92 1667.41C1155.58 1664.01 1167.23 1662.31 1178.89 1662.31C1199.3 1662.31 1216.3 1665.46 1229.9 1671.78C1243.5 1677.61 1251.76 1686.35 1254.68 1698.01C1260.02 1717.93 1264.88 1736.63 1269.25 1754.12C1274.11 1771.12 1278.73 1787.64 1283.1 1803.67C1287.47 1819.22 1291.6 1834.76 1295.49 1850.31C1299.86 1865.86 1303.99 1882.13 1307.87 1899.13H1311.52C1315.89 1869.5 1319.78 1841.32 1323.18 1814.6C1326.58 1787.4 1329.73 1760.92 1332.65 1735.18C1335.56 1708.94 1338.48 1683.2 1341.39 1657.93C1344.31 1632.19 1347.22 1606.2 1350.14 1579.96C1368.11 1569.76 1387.3 1564.66 1407.7 1564.66C1425.68 1564.66 1441.23 1568.55 1454.34 1576.32C1467.46 1584.09 1474.02 1597.21 1474.02 1615.67C1474.02 1626.36 1472.8 1641.66 1470.37 1661.58C1468.43 1681.01 1465.51 1702.87 1461.63 1727.16C1458.23 1751.45 1454.1 1776.95 1449.24 1803.67C1444.38 1830.39 1439.28 1855.9 1433.94 1880.19C1428.59 1904.48 1423.01 1926.58 1417.18 1946.5C1411.83 1965.93 1406.73 1980.99 1401.88 1991.68C1394.59 1998.48 1382.69 2004.07 1366.17 2008.44C1349.65 2012.81 1332.65 2015 1315.16 2015C1292.33 2015 1272.9 2012.08 1256.86 2006.25C1241.32 1999.94 1231.85 1991.19 1228.45 1980.02C1222.13 1960.59 1215.33 1937.51 1208.04 1910.79C1200.75 1884.07 1192.98 1854.68 1184.72 1822.62C1177.92 1854.2 1170.88 1885.04 1163.59 1915.16C1156.3 1945.28 1149.75 1970.79 1143.92 1991.68C1136.63 1998.48 1125.7 2004.07 1111.12 2008.44C1096.55 2012.81 1080.52 2015 1063.03 2015C1041.17 2015 1021.25 2012.08 1003.28 2006.25C985.789 1999.94 974.372 1991.19 969.029 1980.02C964.656 1971.27 959.798 1958.4 954.455 1941.4C949.597 1923.91 944.496 1904.23 939.152 1882.37C933.808 1860.03 928.222 1835.98 922.392 1810.23C917.048 1784.48 911.947 1758.74 907.089 1732.99C902.717 1707.24 898.588 1682.22 894.701 1657.93C890.815 1633.16 887.9 1610.57 885.957 1590.16C892.758 1583.85 902.231 1578.02 914.376 1572.68C926.521 1567.33 939.638 1564.66 953.726 1564.66C972.186 1564.66 987.246 1568.79 998.905 1577.05C1011.05 1584.82 1018.58 1598.18 1021.49 1617.13C1029.27 1666.68 1035.58 1707.97 1040.44 1741.01C1045.78 1774.04 1049.91 1801.24 1052.83 1822.62C1056.23 1843.51 1058.66 1859.78 1060.12 1871.44C1061.57 1883.1 1063.03 1892.33 1064.49 1899.13H1068.13C1072.5 1879.7 1076.63 1861.73 1080.52 1845.21C1084.41 1828.69 1088.29 1812.17 1092.18 1795.66C1096.55 1778.65 1100.92 1760.68 1105.3 1741.73C1109.67 1722.3 1114.28 1700.2 1119.14 1675.42Z" fill="#20349B"/>
<path d="M1824.64 1675.42C1829.98 1672.99 1838.24 1670.32 1849.42 1667.41C1861.07 1664.01 1872.73 1662.31 1884.39 1662.31C1904.8 1662.31 1921.8 1665.46 1935.4 1671.78C1949 1677.61 1957.26 1686.35 1960.18 1698.01C1965.52 1717.93 1970.38 1736.63 1974.75 1754.12C1979.61 1771.12 1984.22 1787.64 1988.6 1803.67C1992.97 1819.22 1997.1 1834.76 2000.98 1850.31C2005.36 1865.86 2009.49 1882.13 2013.37 1899.13H2017.02C2021.39 1869.5 2025.27 1841.32 2028.68 1814.6C2032.08 1787.4 2035.23 1760.92 2038.15 1735.18C2041.06 1708.94 2043.98 1683.2 2046.89 1657.93C2049.81 1632.19 2052.72 1606.2 2055.64 1579.96C2073.61 1569.76 2092.8 1564.66 2113.2 1564.66C2131.18 1564.66 2146.72 1568.55 2159.84 1576.32C2172.96 1584.09 2179.52 1597.21 2179.52 1615.67C2179.52 1626.36 2178.3 1641.66 2175.87 1661.58C2173.93 1681.01 2171.01 1702.87 2167.13 1727.16C2163.73 1751.45 2159.6 1776.95 2154.74 1803.67C2149.88 1830.39 2144.78 1855.9 2139.44 1880.19C2134.09 1904.48 2128.51 1926.58 2122.68 1946.5C2117.33 1965.93 2112.23 1980.99 2107.37 1991.68C2100.09 1998.48 2088.19 2004.07 2071.67 2008.44C2055.15 2012.81 2038.15 2015 2020.66 2015C1997.83 2015 1978.4 2012.08 1962.36 2006.25C1946.82 1999.94 1937.35 1991.19 1933.94 1980.02C1927.63 1960.59 1920.83 1937.51 1913.54 1910.79C1906.25 1884.07 1898.48 1854.68 1890.22 1822.62C1883.42 1854.2 1876.38 1885.04 1869.09 1915.16C1861.8 1945.28 1855.25 1970.79 1849.42 1991.68C1842.13 1998.48 1831.2 2004.07 1816.62 2008.44C1802.05 2012.81 1786.02 2015 1768.53 2015C1746.67 2015 1726.75 2012.08 1708.78 2006.25C1691.29 1999.94 1679.87 1991.19 1674.53 1980.02C1670.16 1971.27 1665.3 1958.4 1659.95 1941.4C1655.1 1923.91 1650 1904.23 1644.65 1882.37C1639.31 1860.03 1633.72 1835.98 1627.89 1810.23C1622.55 1784.48 1617.45 1758.74 1612.59 1732.99C1608.22 1707.24 1604.09 1682.22 1600.2 1657.93C1596.31 1633.16 1593.4 1610.57 1591.46 1590.16C1598.26 1583.85 1607.73 1578.02 1619.88 1572.68C1632.02 1567.33 1645.14 1564.66 1659.23 1564.66C1677.69 1564.66 1692.75 1568.79 1704.4 1577.05C1716.55 1584.82 1724.08 1598.18 1726.99 1617.13C1734.77 1666.68 1741.08 1707.97 1745.94 1741.01C1751.28 1774.04 1755.41 1801.24 1758.33 1822.62C1761.73 1843.51 1764.16 1859.78 1765.62 1871.44C1767.07 1883.1 1768.53 1892.33 1769.99 1899.13H1773.63C1778 1879.7 1782.13 1861.73 1786.02 1845.21C1789.91 1828.69 1793.79 1812.17 1797.68 1795.66C1802.05 1778.65 1806.42 1760.68 1810.79 1741.73C1815.17 1722.3 1819.78 1700.2 1824.64 1675.42Z" fill="#20349B"/>
<path d="M2530.14 1675.42C2535.48 1672.99 2543.74 1670.32 2554.91 1667.41C2566.57 1664.01 2578.23 1662.31 2589.89 1662.31C2610.3 1662.31 2627.3 1665.46 2640.9 1671.78C2654.5 1677.61 2662.76 1686.35 2665.68 1698.01C2671.02 1717.93 2675.88 1736.63 2680.25 1754.12C2685.11 1771.12 2689.72 1787.64 2694.1 1803.67C2698.47 1819.22 2702.6 1834.76 2706.48 1850.31C2710.86 1865.86 2714.99 1882.13 2718.87 1899.13H2722.52C2726.89 1869.5 2730.77 1841.32 2734.17 1814.6C2737.58 1787.4 2740.73 1760.92 2743.65 1735.18C2746.56 1708.94 2749.48 1683.2 2752.39 1657.93C2755.31 1632.19 2758.22 1606.2 2761.14 1579.96C2779.11 1569.76 2798.3 1564.66 2818.7 1564.66C2836.68 1564.66 2852.22 1568.55 2865.34 1576.32C2878.46 1584.09 2885.01 1597.21 2885.01 1615.67C2885.01 1626.36 2883.8 1641.66 2881.37 1661.58C2879.43 1681.01 2876.51 1702.87 2872.63 1727.16C2869.23 1751.45 2865.1 1776.95 2860.24 1803.67C2855.38 1830.39 2850.28 1855.9 2844.94 1880.19C2839.59 1904.48 2834.01 1926.58 2828.18 1946.5C2822.83 1965.93 2817.73 1980.99 2812.87 1991.68C2805.59 1998.48 2793.68 2004.07 2777.17 2008.44C2760.65 2012.81 2743.65 2015 2726.16 2015C2703.33 2015 2683.89 2012.08 2667.86 2006.25C2652.32 1999.94 2642.84 1991.19 2639.44 1980.02C2633.13 1960.59 2626.33 1937.51 2619.04 1910.79C2611.75 1884.07 2603.98 1854.68 2595.72 1822.62C2588.92 1854.2 2581.88 1885.04 2574.59 1915.16C2567.3 1945.28 2560.74 1970.79 2554.91 1991.68C2547.63 1998.48 2536.7 2004.07 2522.12 2008.44C2507.55 2012.81 2491.52 2015 2474.03 2015C2452.17 2015 2432.25 2012.08 2414.28 2006.25C2396.79 1999.94 2385.37 1991.19 2380.03 1980.02C2375.66 1971.27 2370.8 1958.4 2365.45 1941.4C2360.6 1923.91 2355.49 1904.23 2350.15 1882.37C2344.81 1860.03 2339.22 1835.98 2333.39 1810.23C2328.05 1784.48 2322.95 1758.74 2318.09 1732.99C2313.72 1707.24 2309.59 1682.22 2305.7 1657.93C2301.81 1633.16 2298.9 1610.57 2296.96 1590.16C2303.76 1583.85 2313.23 1578.02 2325.37 1572.68C2337.52 1567.33 2350.64 1564.66 2364.72 1564.66C2383.18 1564.66 2398.24 1568.79 2409.9 1577.05C2422.05 1584.82 2429.58 1598.18 2432.49 1617.13C2440.27 1666.68 2446.58 1707.97 2451.44 1741.01C2456.78 1774.04 2460.91 1801.24 2463.83 1822.62C2467.23 1843.51 2469.66 1859.78 2471.11 1871.44C2472.57 1883.1 2474.03 1892.33 2475.49 1899.13H2479.13C2483.5 1879.7 2487.63 1861.73 2491.52 1845.21C2495.4 1828.69 2499.29 1812.17 2503.18 1795.66C2507.55 1778.65 2511.92 1760.68 2516.29 1741.73C2520.67 1722.3 2525.28 1700.2 2530.14 1675.42Z" fill="#20349B"/>
<path d="M2974.65 1950.14C2974.65 1929.74 2980.97 1912.73 2993.6 1899.13C3006.23 1885.53 3023.47 1878.73 3045.33 1878.73C3067.2 1878.73 3084.44 1885.53 3097.07 1899.13C3109.7 1912.73 3116.02 1929.74 3116.02 1950.14C3116.02 1970.54 3109.7 1987.55 3097.07 2001.15C3084.44 2014.75 3067.2 2021.55 3045.33 2021.55C3023.47 2021.55 3006.23 2014.75 2993.6 2001.15C2980.97 1987.55 2974.65 1970.54 2974.65 1950.14Z" fill="#20349B"/>
</svg>
