<svg width="4000" height="4000" viewBox="0 0 4000 4000" fill="none" xmlns="http://www.w3.org/2000/svg">
<path fill-rule="evenodd" clip-rule="evenodd" d="M1479.08 1008.5C1638.31 1054.43 1820.38 1106.96 1999.66 1107.11C2178.93 1106.96 2361.01 1054.43 2520.24 1008.5C2644.11 972.768 2754.16 941.023 2838.31 941.023C3431.29 941.023 3784.45 3059.98 3317.98 3059.98C3166.27 3059.98 3091.17 2970.04 2998.21 2858.72C2847.27 2677.95 2649.23 2440.79 1999.66 2440.6C1350.09 2440.79 1152.05 2677.95 1001.11 2858.72C908.145 2970.04 833.049 3059.98 681.338 3059.98C214.867 3059.98 568.031 941.023 1161.01 941.023C1245.16 941.023 1355.21 972.768 1479.08 1008.5ZM1049.5 1480.29C1049.5 1452.67 1071.88 1430.29 1099.5 1430.29H1196.16C1223.78 1430.29 1246.16 1452.67 1246.16 1480.29V1602.97H1368.84C1396.46 1602.97 1418.84 1625.36 1418.84 1652.97V1749.64C1418.84 1777.25 1396.46 1799.64 1368.84 1799.64H1246.16V1922.32C1246.16 1949.93 1223.78 1972.32 1196.16 1972.32H1099.5C1071.88 1972.32 1049.5 1949.93 1049.5 1922.32V1799.64H926.815C899.2 1799.64 876.815 1777.25 876.815 1749.64V1652.97C876.815 1625.36 899.2 1602.97 926.815 1602.97H1049.5V1480.29ZM2883.04 1465.66C2883.04 1540.83 2822.11 1601.77 2746.94 1601.77C2671.77 1601.77 2610.83 1540.83 2610.83 1465.66C2610.83 1390.49 2671.77 1329.56 2746.94 1329.56C2822.11 1329.56 2883.04 1390.49 2883.04 1465.66ZM2507.1 1838.01C2582.27 1838.01 2643.21 1777.07 2643.21 1701.9C2643.21 1626.73 2582.27 1565.8 2507.1 1565.8C2431.93 1565.8 2370.99 1626.73 2370.99 1701.9C2370.99 1777.07 2431.93 1838.01 2507.1 1838.01ZM2883.04 1935.74C2883.04 2010.91 2822.11 2071.85 2746.94 2071.85C2671.77 2071.85 2610.83 2010.91 2610.83 1935.74C2610.83 1860.57 2671.77 1799.64 2746.94 1799.64C2822.11 1799.64 2883.04 1860.57 2883.04 1935.74ZM2983.18 1838.01C3058.35 1838.01 3119.28 1777.07 3119.28 1701.9C3119.28 1626.73 3058.35 1565.8 2983.18 1565.8C2908.01 1565.8 2847.07 1626.73 2847.07 1701.9C2847.07 1777.07 2908.01 1838.01 2983.18 1838.01Z" fill="#20349B"/>
</svg>
