<svg width="4000" height="4000" viewBox="0 0 4000 4000" fill="none" xmlns="http://www.w3.org/2000/svg">
<path fill-rule="evenodd" clip-rule="evenodd" d="M811.825 174C657.282 174 532 299.292 532 453.847V3546.15C532 3700.71 657.282 3826 811.825 3826H3189.17C3343.72 3826 3469 3700.71 3469 3546.15V453.847C3469 299.292 3343.72 174 3189.17 174H811.825ZM999.541 2099.11C967.345 2099.11 941.245 2125.21 941.245 2157.41C941.245 2189.61 967.345 2215.72 999.541 2215.72H3002.62C3034.82 2215.72 3060.92 2189.61 3060.92 2157.41C3060.92 2125.21 3034.82 2099.11 3002.62 2099.11H999.541ZM818.821 2762.58C818.821 2730.38 844.921 2704.28 877.118 2704.28H3125.05C3157.24 2704.28 3183.34 2730.38 3183.34 2762.58C3183.34 2794.78 3157.24 2820.88 3125.05 2820.88H877.118C844.921 2820.88 818.821 2794.78 818.821 2762.58ZM1907.69 1275.02L1744.3 1223.21C1730.26 1284.32 1707.1 1329.11 1674.84 1357.58C1642.58 1386.05 1604.06 1400.28 1559.27 1400.28C1498.55 1400.28 1449.21 1377.88 1411.25 1333.1C1373.3 1288.31 1354.32 1213.15 1354.32 1107.63C1354.32 1008.19 1373.49 936.259 1411.82 891.85C1450.54 847.44 1500.83 825.236 1562.69 825.236C1607.48 825.236 1645.43 837.762 1676.55 862.813C1708.05 887.864 1728.74 922.025 1738.61 965.296L1905.41 925.441C1886.44 858.638 1857.97 807.396 1820.02 771.717C1756.25 711.366 1673.33 681.19 1571.23 681.19C1454.33 681.19 1360.02 719.716 1288.28 796.768C1216.55 873.441 1180.69 981.238 1180.69 1120.16C1180.69 1251.49 1216.36 1355.11 1287.72 1431.02C1359.07 1506.56 1450.16 1544.32 1560.98 1544.32C1650.55 1544.32 1724.37 1522.31 1782.44 1478.28C1840.89 1433.87 1882.64 1366.12 1907.69 1275.02ZM1967.47 695.424L2265.78 1530.09H2445.68L2744.57 695.424H2565.81L2361.43 1313.17L2150.21 695.424H1967.47Z" fill="#20349B"/>
</svg>
