<svg width="1800" height="500" viewBox="0 0 1800 500" fill="none" xmlns="http://www.w3.org/2000/svg">
<path d="M457.112 386.823V391.823H462.112H586.112C596.261 391.823 605.581 390.132 613.996 386.655C622.639 383.193 630.052 378.12 636.166 371.437C642.564 364.735 647.43 356.513 650.827 346.887C654.244 337.206 655.912 326.498 655.912 314.823V298.023C655.912 288.31 654.053 278.994 650.334 270.115C647.151 262.292 642.254 255.521 635.735 249.809C640.373 244.165 644.167 237.806 647.123 230.757C650.842 221.889 652.712 212.7 652.712 203.223V181.223C652.712 170.809 651.022 161.122 647.575 152.218C644.149 143.366 639.261 135.712 632.889 129.329C626.772 122.932 619.373 118.022 610.769 114.581C602.115 111.119 592.676 109.423 582.512 109.423H462.112H457.112V114.423V386.823ZM588.977 215.288L588.884 215.381L588.796 215.478C586.813 217.681 584.515 219.432 581.876 220.751C579.348 222.015 576.777 222.623 574.112 222.623H514.312V169.023H574.112C576.777 169.023 579.348 169.631 581.876 170.895L584.112 166.423L581.876 170.895C584.409 172.161 586.662 173.969 588.643 176.389L588.8 176.582L588.977 176.759C591.157 178.938 592.767 181.415 593.846 184.218C594.928 187.033 595.512 190.28 595.512 194.023V198.023C595.512 201.435 594.949 204.713 593.824 207.884C592.746 210.664 591.142 213.122 588.977 215.288ZM597.004 294.105L597.079 294.315L597.173 294.518C598.455 297.297 599.112 300.311 599.112 303.623V306.423C599.112 310.047 598.436 313.374 597.117 316.454L597.079 316.54L597.046 316.628C595.924 319.545 594.373 322.082 592.396 324.278C590.478 326.409 588.108 328.149 585.217 329.483L585.146 329.516L585.076 329.551C582.548 330.815 579.977 331.423 577.312 331.423H514.312V279.023H577.312C579.977 279.023 582.548 279.631 585.076 280.895L585.146 280.93L585.217 280.963C588.108 282.297 590.478 284.037 592.396 286.168C594.316 288.302 595.866 290.921 597.004 294.105ZM717.003 391.823H720.943L721.864 387.992L730.943 350.223H796.225L804.931 387.947L805.825 391.823H809.803H857.803H864.186L862.657 385.626L795.457 113.226L794.519 109.423H790.603H738.603H734.725L733.76 113.179L663.76 385.579L662.156 391.823H668.603H717.003ZM1091.74 383.655L1006.03 279.023H1009.07C1020.09 279.023 1030.47 277.043 1040.18 273.047C1049.85 269.066 1058.17 263.485 1065.08 256.289C1072.16 248.927 1077.69 240.56 1081.66 231.208C1085.94 221.501 1088.07 211.223 1088.07 200.423V188.423C1088.07 177.632 1085.94 167.363 1081.67 157.663C1077.71 148.051 1072.17 139.654 1065.05 132.524C1058.16 125.358 1049.86 119.796 1040.24 115.823C1030.52 111.546 1020.11 109.423 1009.07 109.423H892.275H887.275V114.423V386.823V391.823H892.275H943.075H948.075V386.823V291.231L1025.95 389.92L1027.45 391.823H1029.87H1087.87H1098.43L1091.74 383.655ZM1022.5 174.504L1022.54 174.546L1022.58 174.586C1026.9 179.347 1029.27 185.791 1029.27 194.423C1029.27 203.684 1026.85 210.165 1022.65 214.575C1018.64 218.79 1011.83 221.423 1001.07 221.423H948.075V167.023H1001.07C1011.71 167.023 1018.46 169.854 1022.5 174.504ZM742.929 299.823L764.322 209.712L784.743 299.823H742.929Z" fill="#0038A8" stroke="#0038A8" stroke-width="10"/>
<path d="M1110.24 386.823V391.823H1115.24H1239.24C1249.39 391.823 1258.71 390.132 1267.12 386.655C1275.76 383.193 1283.18 378.12 1289.29 371.437C1295.69 364.735 1300.55 356.513 1303.95 346.887C1307.37 337.206 1309.04 326.498 1309.04 314.823V298.023C1309.04 288.31 1307.18 278.994 1303.46 270.115C1300.28 262.292 1295.38 255.521 1288.86 249.809C1293.5 244.165 1297.29 237.806 1300.25 230.757C1303.97 221.889 1305.84 212.7 1305.84 203.223V181.223C1305.84 170.809 1304.15 161.122 1300.7 152.218C1297.27 143.367 1292.39 135.712 1286.01 129.329C1279.9 122.932 1272.5 118.022 1263.89 114.581C1255.24 111.119 1245.8 109.423 1235.64 109.423H1115.24H1110.24V114.423V386.823ZM1242.1 215.288L1242.01 215.381L1241.92 215.478C1239.94 217.681 1237.64 219.432 1235 220.751C1232.47 222.015 1229.9 222.623 1227.24 222.623H1167.44V169.023H1227.24C1229.9 169.023 1232.47 169.631 1235 170.895L1237.24 166.423L1235 170.895C1237.53 172.161 1239.79 173.969 1241.77 176.389L1241.93 176.582L1242.1 176.759C1244.28 178.938 1245.89 181.415 1246.97 184.218C1248.05 187.033 1248.64 190.28 1248.64 194.023V198.023C1248.64 201.435 1248.07 204.713 1246.95 207.884C1245.87 210.664 1244.27 213.122 1242.1 215.288ZM1250.13 294.105L1250.2 294.315L1250.3 294.518C1251.58 297.297 1252.24 300.311 1252.24 303.623V306.423C1252.24 310.047 1251.56 313.374 1250.24 316.454L1250.2 316.54L1250.17 316.628C1249.05 319.545 1247.5 322.082 1245.52 324.278C1243.6 326.409 1241.23 328.149 1238.34 329.483L1238.27 329.516L1238.2 329.551C1235.67 330.815 1233.1 331.423 1230.44 331.423H1167.44V279.023H1230.44C1233.1 279.023 1235.67 279.631 1238.2 280.895L1238.27 280.93L1238.34 280.963C1241.23 282.297 1243.6 284.037 1245.52 286.168C1247.44 288.302 1248.99 290.921 1250.13 294.105ZM1370.13 391.823H1374.07L1374.99 387.992L1384.07 350.223H1449.35L1458.06 387.947L1458.95 391.823H1462.93H1510.93H1517.31L1515.78 385.626L1448.58 113.226L1447.64 109.423H1443.73H1391.73H1387.85L1386.89 113.179L1316.89 385.579L1315.28 391.823H1321.73H1370.13ZM1591.4 391.823H1596.4V386.823V278.223H1733H1738V273.223V227.623V222.623H1733H1595.2V165.423H1732.6H1737.6V160.423V114.423V109.423H1732.6H1545.4H1540.4V114.423V386.823V391.823H1545.4H1591.4ZM1437.87 299.823H1396.05L1417.45 209.712L1437.87 299.823Z" fill="#D60270" stroke="#D60270" stroke-width="10"/>
<path d="M265.612 103.423C247.111 103.423 232.112 118.422 232.112 136.923V362.923C232.112 380.268 245.295 394.535 262.187 396.25C263.313 396.365 264.456 396.423 265.612 396.423H362.612C381.114 396.423 396.112 381.425 396.112 362.923V312.923C396.112 294.422 381.114 279.423 362.612 279.423C344.111 279.423 329.112 294.422 329.112 312.923V329.423H299.112V170.423H329.112V186.923C329.112 205.425 344.111 220.423 362.612 220.423C381.114 220.423 396.112 205.425 396.112 186.923V136.923C396.112 136.779 396.111 136.634 396.11 136.49C396.082 134.328 395.85 132.216 395.432 130.172C392.308 114.906 378.801 103.423 362.612 103.423C362.605 103.423 362.599 103.423 362.592 103.423L265.612 103.423Z" fill="#D60270"/>
<path fill-rule="evenodd" clip-rule="evenodd" d="M198.5 103L198.489 103L101.5 103C82.9985 103 68 117.998 68 136.5C68 155.002 82.9985 170 101.5 170L165 170V329H135V312.5C135 293.998 120.002 279 101.5 279C82.9985 279 68 293.998 68 312.5V362.5C68 381.002 82.9985 396 101.5 396H198.5C217.002 396 232 381.002 232 362.5V136.5C232 117.998 217.002 103 198.5 103Z" fill="#0038A8"/>
</svg>
