<svg width="3000" height="3000" viewBox="0 0 3000 3000" fill="none" xmlns="http://www.w3.org/2000/svg">
<path d="M2418.67 616.534C2765.49 818.032 2329.36 1061.7 2208.31 1247.14C2053.72 1483.99 2099.48 1483.99 2147.49 1823.25C2194.81 2157.56 1725.37 2525.69 1421.76 2349.3C1132.53 2181.26 1456.06 1917.13 1544.62 1652.55C1633.19 1387.97 1544.62 1148.08 1683.34 978.296C1854.82 768.4 2122.84 444.661 2418.67 616.534Z" fill="#7C7C7C"/>
<path d="M1911.63 2290C1764.83 2062.68 1655.58 1974.14 1409 1890.98C1463.53 1805.24 1491.36 1756.64 1530.66 1668C1778.88 1766.16 1913.34 1835.43 2140 1998.74C2075.02 2148.48 2019.98 2204.76 1911.63 2290Z" fill="#2B2B2B"/>
<path d="M1623.74 1049C1585.83 1171.48 1583.18 1260.81 1580 1421.88C1803.16 1394.77 1918.3 1431.22 2115.58 1538C2106.46 1457.1 2110.38 1409.53 2186 1307.88C1998.43 1144.53 1877.06 1084.44 1623.74 1049Z" fill="#2B2B2B"/>
<path d="M2335.1 1122C2188.57 957.051 2080.53 882.954 1842 783.019C1913.67 705.835 1965.02 667.116 2073.61 605C2287.4 682.286 2380.05 757.345 2492 953.575L2335.1 1122Z" fill="#2B2B2B"/>
<path fill-rule="evenodd" clip-rule="evenodd" d="M1421.37 2348.58L1396.43 2391.49C1315.29 2344.34 1269.29 2285.33 1257.19 2214.4C1245.66 2146.77 1266.96 2078.37 1296.13 2015.58C1319.92 1964.36 1351.97 1910.9 1383.09 1859.01C1390.24 1847.08 1397.34 1835.23 1404.29 1823.51C1442.49 1759.03 1476.83 1696.9 1497.14 1636.24C1533.11 1528.76 1537.98 1426.22 1542.8 1324.44C1543.56 1308.5 1544.31 1292.59 1545.19 1276.68C1551.46 1162.33 1564 1044.96 1644.45 946.495C1729.33 842.604 1843.54 703.34 1975.85 612.946C2110.16 521.189 2272.41 474.196 2443 573.303C2536.5 627.625 2589.39 692.024 2597.83 768.169C2605.94 841.37 2570.71 909.499 2528.22 966.961C2486.67 1023.15 2431.25 1078.11 2381.07 1127.86C2379.17 1129.75 2377.27 1131.63 2375.38 1133.5C2321.73 1186.72 2276.09 1232.77 2249.31 1273.79C2172.33 1391.73 2152.48 1440.66 2151 1497.56C2150.19 1528.23 2154.76 1563.15 2163.4 1614.64C2165.43 1626.72 2167.66 1639.63 2170.05 1653.45C2177.66 1697.38 2186.86 1750.54 2196.08 1815.69C2223.23 2007.51 2102.88 2199.03 1945.46 2316.82C1788 2434.62 1572.54 2493.81 1396.43 2391.49L1421.37 2348.58ZM2344.96 1093.78C2501.28 938.75 2675.62 765.847 2418.06 616.208C2122.3 444.374 1854.33 768.039 1682.89 977.888C1604.23 1074.16 1598.67 1192.97 1592.43 1326.04C1587.68 1427.61 1582.53 1537.49 1544.2 1651.99C1517.85 1730.71 1470.69 1809.4 1425.07 1885.52C1317.39 2065.18 1218.26 2230.58 1421.37 2348.58C1724.91 2524.93 2194.25 2156.88 2146.94 1822.65C2137.84 1758.34 2128.82 1706.22 2121.23 1662.37C2088.79 1474.95 2082.49 1438.57 2207.75 1246.67C2238.87 1198.99 2290.84 1147.45 2344.96 1093.78Z" fill="#1E1E1E"/>
<path d="M692.331 1956.53C704.093 1806.02 750.703 1641.08 820.118 1471.4L1529.85 1459C1599.26 1628.69 1640.91 1806.02 1652.67 1956.53C1665 2114.26 1646.83 2284.96 1598.19 2514.71C1542.69 2510.27 1482.2 2519.4 1434.84 2540.83C1422.35 2546.48 1416.81 2561.17 1422.47 2573.65C1428.12 2586.12 1442.82 2591.66 1455.31 2586.01C1503.44 2564.23 1570.76 2557.3 1625.33 2568.5C1652.48 2574.07 1674.47 2583.74 1689.19 2596.34C1703.26 2608.39 1711 2623.22 1711 2642.27C1711 2674.13 1691.81 2698.82 1654.55 2716.45C1616.82 2734.3 1564.35 2742.53 1509.64 2740.77C1455.07 2739.01 1401.12 2727.41 1360.94 2708.22C1319.69 2688.52 1299.46 2664.32 1297.51 2640.27C1291.6 2567.23 1294.54 2517.18 1297.54 2473.4C1297.69 2471.09 1297.85 2468.8 1298.01 2466.51C1300.78 2426.5 1303.33 2389.53 1297.87 2344.88C1344.28 2336.55 1393.7 2324.51 1449.77 2308.59C1462.96 2304.85 1470.61 2291.13 1466.86 2277.96C1463.12 2264.79 1449.39 2257.14 1436.21 2260.88C1337.23 2288.99 1261.81 2304.07 1187.96 2308.29C1114.16 2312.51 1040.82 2305.94 945.93 2289.6C932.424 2287.27 919.587 2296.33 917.259 2309.82C914.931 2323.32 923.993 2336.14 937.499 2338.47C974.549 2344.85 1008.75 2349.84 1041.27 2353.31C1037.13 2394.23 1039.51 2429.02 1042.07 2466.5C1042.22 2468.78 1042.38 2471.08 1042.54 2473.38C1045.5 2517.17 1048.41 2567.23 1042.56 2640.29C1040.62 2664.46 1020.56 2688.62 979.864 2708.27C940.177 2727.43 886.864 2739.01 832.939 2740.77C778.862 2742.53 727.041 2734.31 689.79 2716.5C653.062 2698.93 634 2674.28 634 2642.27C634 2623.12 641.706 2608.27 655.582 2596.26C670.106 2583.69 691.801 2574.05 718.604 2568.49C772.479 2557.31 838.978 2564.23 886.509 2585.97C898.971 2591.67 913.697 2586.19 919.401 2573.74C925.104 2561.29 919.625 2546.57 907.163 2540.87C860.657 2519.6 801.374 2510.43 746.787 2514.6C698.163 2284.9 680.007 2114.24 692.331 1956.53Z" fill="#7C7C7C"/>
<path fill-rule="evenodd" clip-rule="evenodd" d="M1652.53 1956.62C1640.06 1797.31 1596.3 1649.62 1519 1466.22L1564.84 1447C1643.27 1633.09 1689.07 1786.22 1702.11 1952.76C1715.13 2119.07 1695.35 2297.15 1644.91 2533L1596.28 2522.65C1646.27 2288.92 1665.02 2116.14 1652.53 1956.62Z" fill="#1E1E1E"/>
<path fill-rule="evenodd" clip-rule="evenodd" d="M1270.07 2320.21C1283.66 2318.43 1296.12 2327.99 1297.9 2341.57C1303.99 2387.94 1301.37 2425.87 1298.53 2467.02C1298.37 2469.3 1298.21 2471.6 1298.05 2473.9C1295.06 2517.67 1292.12 2567.7 1298.03 2640.72C1299.98 2664.77 1320.2 2688.96 1361.44 2708.66C1401.6 2727.84 1455.54 2739.43 1510.09 2741.19C1564.79 2742.95 1617.23 2734.73 1654.95 2716.88C1692.21 2699.26 1711.38 2674.58 1711.38 2642.72C1711.38 2623.68 1703.65 2608.85 1689.59 2596.81C1674.87 2584.21 1652.88 2574.55 1625.74 2568.97C1571.19 2557.77 1503.89 2564.71 1455.77 2586.48C1443.29 2592.13 1428.59 2586.59 1422.94 2574.12C1417.29 2561.65 1422.83 2546.96 1435.31 2541.31C1493.5 2514.99 1571.52 2507.23 1635.72 2520.41C1667.95 2527.03 1698.7 2539.32 1721.87 2559.16C1745.69 2579.56 1761 2607.65 1761 2642.72C1761 2700.37 1723.83 2739.15 1676.18 2761.69C1629.01 2784.01 1568 2792.66 1508.49 2790.74C1448.83 2788.82 1387.8 2776.2 1340.04 2753.39C1293.35 2731.08 1252.69 2695.49 1248.58 2644.72C1242.38 2568.11 1245.49 2515.26 1248.55 2470.52C1248.69 2468.57 1248.82 2466.63 1248.95 2464.71C1251.84 2422.81 1254.14 2389.36 1248.71 2348.02C1246.92 2334.44 1256.49 2322 1270.07 2320.21Z" fill="#1E1E1E"/>
<path fill-rule="evenodd" clip-rule="evenodd" d="M692.465 1956.62C704.937 1797.31 748.696 1649.62 826 1466.22L780.164 1447C701.727 1633.09 655.933 1786.22 642.894 1952.76C629.873 2119.07 649.649 2297.15 700.091 2533L748.718 2522.65C698.731 2288.92 679.976 2116.14 692.465 1956.62Z" fill="#1E1E1E"/>
<path fill-rule="evenodd" clip-rule="evenodd" d="M1070.93 2320.21C1057.34 2318.45 1044.9 2328.02 1043.14 2341.6C1037.11 2387.95 1039.7 2425.85 1042.52 2467C1042.67 2469.29 1042.83 2471.58 1042.99 2473.89C1045.95 2517.66 1048.86 2567.7 1043.01 2640.74C1041.07 2664.9 1021.02 2689.06 980.338 2708.7C940.668 2727.86 887.375 2739.44 833.471 2741.19C779.416 2742.95 727.616 2734.73 690.38 2716.93C653.666 2699.37 634.612 2674.72 634.612 2642.72C634.612 2623.58 642.314 2608.73 656.184 2596.72C670.703 2584.16 692.39 2574.52 719.182 2568.96C773.036 2557.79 839.509 2564.71 887.021 2586.44C899.478 2592.13 914.198 2586.66 919.899 2574.21C925.6 2561.76 920.123 2547.05 907.666 2541.35C850.014 2514.99 772.718 2507.21 709.094 2520.42C677.147 2527.05 646.668 2539.37 623.705 2559.25C600.094 2579.68 585 2607.75 585 2642.72C585 2700.23 621.689 2739.04 668.965 2761.65C715.719 2784.01 776.155 2792.66 835.085 2790.74C894.166 2788.82 954.607 2776.19 1001.92 2753.34C1048.23 2730.98 1088.41 2695.35 1092.46 2644.7C1098.6 2568.1 1095.51 2515.27 1092.49 2470.54C1092.35 2468.58 1092.22 2466.64 1092.09 2464.72C1089.24 2422.83 1086.96 2389.35 1092.34 2347.98C1094.1 2334.41 1084.52 2321.97 1070.93 2320.21Z" fill="#1E1E1E"/>
<path fill-rule="evenodd" clip-rule="evenodd" d="M1467.05 2277.99C1470.8 2291.14 1463.14 2304.83 1449.96 2308.56C1349.16 2337.12 1269.84 2353.18 1190.94 2357.68C1111.98 2362.18 1034.56 2355.05 937.607 2338.38C924.099 2336.06 915.036 2323.26 917.365 2309.79C919.693 2296.32 932.532 2287.28 946.04 2289.61C1040.94 2305.92 1114.3 2312.47 1188.1 2308.26C1261.96 2304.05 1337.4 2289 1436.39 2260.95C1449.58 2257.21 1463.3 2264.84 1467.05 2277.99Z" fill="#1E1E1E"/>
<path d="M1498 1898C1498 2140.4 1408.6 2201 1197.5 2201C986.405 2201 897 2130.3 897 1898C897 1730.66 1065.88 1595 1197.5 1595C1329.12 1595 1498 1730.66 1498 1898Z" fill="#FEFFFB"/>
<path d="M653.732 2258C432.984 2258 542.118 1662.44 762.866 1454L872 1486.26C840.706 1556 765.231 1816.3 787.669 1923C810.108 2029.7 874.481 2258 653.732 2258Z" fill="#7C7C7C"/>
<path fill-rule="evenodd" clip-rule="evenodd" d="M823.741 1432.41C830.047 1444.58 825.282 1459.56 813.098 1465.86C754.838 1495.98 702.192 1558.98 659.92 1640.31C617.925 1721.11 587.656 1817.16 572.551 1909.27C557.379 2001.77 557.894 2087.89 575.325 2149.51C584.015 2180.23 596.435 2203.18 611.562 2218.14C626.121 2232.54 644.073 2240.5 667.134 2240.37C722.242 2240.06 753.909 2225.28 772.496 2206.62C791.366 2187.68 800.438 2161.05 802.742 2129.86C806.551 2078.33 791.867 2024.41 782.787 1991.08C780.531 1982.79 778.621 1975.78 777.426 1970.39C772.329 1947.38 767.544 1924.4 766.548 1895.71C765.554 1867.04 768.355 1833.63 777.322 1788.84C780.012 1775.4 793.099 1766.69 806.551 1769.37C820.004 1772.06 828.728 1785.14 826.038 1798.57C817.616 1840.64 815.37 1870.1 816.199 1893.99C817.028 1917.86 820.937 1937.11 825.933 1959.66C826.613 1962.73 827.943 1967.53 829.665 1973.74C838.318 2004.94 856.85 2071.78 852.289 2133.51C849.481 2171.5 837.935 2211.29 807.713 2241.63C777.208 2272.25 731.312 2289.64 667.414 2290C630.973 2290.2 600.4 2276.94 576.608 2253.41C553.384 2230.44 537.629 2198.75 527.516 2163C507.339 2091.68 507.738 1997.49 523.523 1901.24C539.375 1804.59 571.137 1703.42 615.828 1617.44C660.243 1531.99 718.939 1458.66 790.262 1421.78C802.446 1415.48 817.435 1420.24 823.741 1432.41Z" fill="#1E1E1E"/>
<path fill-rule="evenodd" clip-rule="evenodd" d="M624.444 2129C631.347 2128.97 636.968 2134.5 636.998 2141.34C637.172 2180.43 639.798 2200.6 655.864 2235.44C658.736 2241.67 655.975 2249.02 649.698 2251.87C643.42 2254.72 636.003 2251.98 633.132 2245.76C615.165 2206.79 612.185 2182.89 612 2141.45C611.97 2134.61 617.541 2129.03 624.444 2129Z" fill="#1E1E1E"/>
<path fill-rule="evenodd" clip-rule="evenodd" d="M718.428 2129C725.331 2128.96 730.959 2134.48 730.999 2141.32C731.188 2174.07 743.648 2194.88 763.812 2228.55L764.246 2229.27C767.771 2235.16 765.816 2242.77 759.881 2246.26C753.945 2249.76 746.276 2247.82 742.751 2241.93C742.195 2241 741.643 2240.08 741.093 2239.16C721.849 2207.06 706.229 2181 706 2141.47C705.961 2134.62 711.525 2129.04 718.428 2129Z" fill="#1E1E1E"/>
<path d="M1071.11 1771.98C1069.51 1751.51 1085.57 1734 1105.96 1734H1368.04C1388.41 1734 1404.47 1751.49 1402.89 1771.95L1370.81 2187.51C1369.4 2205.85 1354.21 2220 1335.95 2220H1138.41C1120.16 2220 1104.99 2205.87 1103.56 2187.54L1071.11 1771.98Z" fill="#E5D2AA"/>
<path fill-rule="evenodd" clip-rule="evenodd" d="M1105.81 1709H1368.19C1403.21 1709 1430.5 1738.98 1427.82 1773.71L1395.7 2189.58C1393.29 2220.72 1367.44 2245 1336.07 2245H1138.29C1106.94 2245 1081.1 2220.75 1078.67 2189.63L1046.19 1773.76C1043.47 1739.02 1070.76 1709 1105.81 1709ZM1105.81 1733.81C1085.4 1733.81 1069.32 1751.33 1070.92 1771.83L1103.4 2187.7C1104.83 2206.04 1120.03 2220.19 1138.29 2220.19H1336.07C1354.35 2220.19 1369.55 2206.02 1370.97 2187.67L1403.09 1771.8C1404.67 1751.31 1388.59 1733.81 1368.19 1733.81H1105.81Z" fill="#44250C"/>
<path d="M1066.09 1865.37C1065.09 1856.09 1072.52 1848 1082.05 1848H1396.95C1406.42 1848 1413.82 1855.98 1412.93 1865.21L1390.4 2096.77C1389.61 2104.84 1382.7 2111 1374.43 2111H1107.05C1098.85 2111 1091.96 2104.93 1091.1 2096.93L1066.09 1865.37Z" fill="#91501A"/>
<path fill-rule="evenodd" clip-rule="evenodd" d="M1081.88 1823H1397.12C1420.67 1823 1440.18 1843.07 1437.8 1867.48L1415.25 2099.32C1413.19 2120.55 1395.19 2136 1374.57 2136H1106.92C1086.45 2136 1068.55 2120.78 1066.28 2099.75L1041.24 1867.91C1038.59 1843.34 1058.17 1823 1081.88 1823ZM1081.88 1847.84C1072.34 1847.84 1064.91 1855.94 1065.91 1865.24L1090.94 2097.08C1091.81 2105.08 1098.7 2111.16 1106.92 2111.16H1374.57C1382.85 2111.16 1389.77 2104.99 1390.56 2096.91L1413.11 1865.07C1414.01 1855.83 1406.59 1847.84 1397.12 1847.84H1081.88Z" fill="#44250C"/>
<path d="M1073.15 1701.39C1073.77 1691.62 1082.17 1684 1092.31 1684H1381.49C1391.59 1684 1399.96 1691.55 1400.65 1701.28L1402.96 1734.22C1403.71 1744.92 1394.91 1754 1383.8 1754H1090.2C1079.13 1754 1070.35 1744.99 1071.04 1734.33L1073.15 1701.39Z" fill="#91501A"/>
<path fill-rule="evenodd" clip-rule="evenodd" d="M1092.15 1660H1381.65C1403.84 1660 1423.91 1676.63 1425.58 1700.18L1427.89 1732.84C1429.74 1758.94 1408.31 1779 1383.96 1779H1090.03C1065.78 1779 1044.41 1759.1 1046.09 1733.1L1048.2 1700.44C1049.73 1676.77 1069.87 1660 1092.15 1660ZM1092.15 1684.79C1081.99 1684.79 1073.58 1692.34 1072.96 1702.03L1070.85 1734.7C1070.16 1745.27 1078.95 1754.21 1090.03 1754.21H1383.96C1395.09 1754.21 1403.9 1745.21 1403.15 1734.59L1400.83 1701.93C1400.15 1692.28 1391.77 1684.79 1381.65 1684.79H1092.15Z" fill="#44250C"/>
<path d="M1051 1740.83C1051 1737.06 1054.09 1734 1057.89 1734H1421.11C1424.91 1734 1428 1737.06 1428 1740.83V1762.17C1428 1765.94 1424.91 1769 1421.11 1769H1057.89C1054.09 1769 1051 1765.94 1051 1762.17V1740.83Z" fill="#91501A"/>
<path fill-rule="evenodd" clip-rule="evenodd" d="M1057.73 1709H1421.27C1438.39 1709 1453 1722.84 1453 1740.83V1762.17C1453 1780.16 1438.39 1794 1421.27 1794H1057.73C1040.61 1794 1026 1780.16 1026 1762.17V1740.83C1026 1722.84 1040.61 1709 1057.73 1709ZM1057.73 1734C1053.91 1734 1050.83 1737.06 1050.83 1740.83V1762.17C1050.83 1765.94 1053.91 1769 1057.73 1769H1421.27C1425.09 1769 1428.17 1765.94 1428.17 1762.17V1740.83C1428.17 1737.06 1425.09 1734 1421.27 1734H1057.73Z" fill="#44250C"/>
<path d="M1738.29 1942.49C1817.87 1815.15 1738.29 1530.64 1619.2 1423.96L1477.78 1483.5C1477.78 1483.5 1543.36 1697.97 1520.35 1787.62C1497.33 1877.27 1158.33 1762.17 1197.11 1988.24C1235.9 2214.32 1658.7 2069.83 1738.29 1942.49Z" fill="#7C7C7C"/>
<path fill-rule="evenodd" clip-rule="evenodd" d="M1324.14 1928.88C1322.05 1922.36 1315.07 1918.75 1308.55 1920.84C1271.29 1932.72 1251.29 1936.46 1213.22 1932.03C1206.42 1931.24 1200.26 1936.12 1199.47 1942.92C1198.68 1949.73 1203.55 1955.89 1210.36 1956.68C1252.93 1961.63 1276.59 1957.07 1316.09 1944.47C1322.61 1942.39 1326.22 1935.41 1324.14 1928.88Z" fill="#1E1E1E"/>
<path fill-rule="evenodd" clip-rule="evenodd" d="M1335.02 2037.91C1332.95 2031.38 1325.98 2027.76 1319.45 2029.84C1288.21 2039.76 1264.59 2034.41 1226.37 2025.76L1225.54 2025.57C1218.86 2024.06 1212.22 2028.25 1210.71 2034.93C1209.19 2041.62 1213.39 2048.26 1220.07 2049.77C1221.12 2050.01 1222.17 2050.25 1223.21 2050.48C1259.66 2058.75 1289.25 2065.46 1326.96 2053.48C1333.49 2051.41 1337.1 2044.44 1335.02 2037.91Z" fill="#1E1E1E"/>
<path fill-rule="evenodd" clip-rule="evenodd" d="M1590.29 1421.45C1583.42 1433.31 1587.47 1448.49 1599.33 1455.35C1660.87 1490.98 1707.74 1578.89 1728.97 1679.66C1750.13 1780.12 1743.53 1882.76 1709.31 1942.58C1693.43 1970.34 1657.66 2000.65 1608.66 2026.89C1560.37 2052.75 1502.28 2073 1445.55 2082.42C1388.42 2091.9 1335.16 2090.01 1295.1 2074.27C1256.56 2059.13 1229.66 2031.21 1221.57 1984.05C1212.96 1933.87 1225.69 1908.48 1243.97 1893.13C1264.77 1875.67 1297.86 1866.66 1338.73 1861.38C1357.57 1858.94 1376.9 1857.42 1396.24 1855.89C1397.39 1855.8 1398.54 1855.71 1399.69 1855.62C1419.84 1854.02 1440.21 1852.35 1458.49 1849.51C1476.51 1846.71 1494.64 1842.48 1509.62 1834.76C1525.19 1826.73 1539.22 1813.87 1544.38 1793.79C1556.77 1745.5 1556.75 1701.82 1553.67 1670.24C1552.12 1654.42 1549.8 1641.52 1547.82 1632.45C1546.83 1627.91 1545.93 1624.32 1545.25 1621.79C1544.91 1620.52 1544.62 1619.52 1544.41 1618.79C1544.3 1618.43 1544.22 1618.14 1544.15 1617.92L1544.06 1617.64L1544.03 1617.54L1544.01 1617.48C1544.01 1617.47 1544.01 1617.46 1520.34 1624.92L1544.01 1617.46C1539.89 1604.39 1525.96 1597.14 1512.89 1601.25C1499.83 1605.37 1492.57 1619.29 1496.68 1632.36C1496.68 1632.36 1496.68 1632.36 1496.68 1632.36M1496.68 1632.36L1496.67 1632.35C1496.68 1632.38 1496.7 1632.45 1496.73 1632.54C1496.75 1632.59 1496.76 1632.66 1496.79 1632.73C1496.9 1633.12 1497.09 1633.77 1497.33 1634.68C1497.82 1636.49 1498.53 1639.31 1499.34 1643.02C1500.96 1650.45 1502.95 1661.41 1504.28 1675.06C1506.95 1702.42 1506.93 1740.08 1496.31 1781.45C1495.72 1783.78 1494.12 1786.93 1486.89 1790.65C1479.08 1794.68 1467.26 1797.93 1450.87 1800.48C1434.74 1802.99 1416.23 1804.53 1395.77 1806.15C1394.53 1806.25 1393.29 1806.35 1392.03 1806.45C1372.96 1807.95 1352.49 1809.57 1332.38 1812.16C1290.47 1817.58 1244.65 1827.78 1212.07 1855.13C1176.97 1884.59 1161.88 1929.58 1172.66 1992.44C1183.96 2058.32 1223.83 2099.59 1276.96 2120.46C1328.56 2140.72 1391.85 2141.63 1453.67 2131.37C1515.89 2121.04 1579.14 2098.99 1632.09 2070.63C1684.34 2042.65 1729.71 2006.85 1752.38 1967.21C1795.27 1892.24 1799.83 1775.31 1777.53 1669.43C1755.29 1563.86 1704.06 1458.65 1624.19 1412.41C1612.33 1405.54 1597.15 1409.59 1590.29 1421.45M1496.67 1632.35L1496.67 1632.33L1496.66 1632.31C1496.66 1632.31 1496.67 1632.33 1496.67 1632.35Z" fill="#1E1E1E"/>
<path d="M622.244 766C558.384 576.45 551.525 459.871 584.052 236C814.709 263.899 914.315 309.09 1071 410.551L622.244 766Z" fill="#FEFFFB"/>
<path d="M689.319 642C655.496 541.145 651.863 479.116 669.091 360C791.257 374.844 844.013 398.889 927 452.874L689.319 642Z" fill="#2B2B2B"/>
<path fill-rule="evenodd" clip-rule="evenodd" d="M562.777 208L586.817 210.915C703.235 225.031 787.864 243.67 863.632 272.125C939.393 300.577 1005.18 338.435 1084.05 389.627L1113 408.422L609.765 808L598.511 774.514C566.165 678.269 547.881 599.427 542.061 515.695C536.255 432.161 542.936 344.887 559.3 231.988L562.777 208ZM604.972 263.238C591.381 362.749 586.476 439.584 591.527 512.25C596.296 580.867 610.006 646.633 634.547 724.972L1027.93 412.615C963.238 371.833 907.963 341.783 846.213 318.592C780.505 293.916 706.507 276.656 604.972 263.238Z" fill="#1E1E1E"/>
<path d="M1737.76 766C1801.62 576.45 1808.47 459.871 1775.95 236C1545.29 263.899 1445.68 309.09 1289 410.551L1737.76 766Z" fill="#FEFFFB"/>
<path d="M1670.68 642C1704.5 541.145 1708.14 479.116 1690.91 360C1568.74 374.844 1515.99 398.889 1433 452.874L1670.68 642Z" fill="#2B2B2B"/>
<path fill-rule="evenodd" clip-rule="evenodd" d="M1797.22 208L1773.18 210.915C1656.76 225.031 1572.14 243.67 1496.37 272.125C1420.61 300.577 1354.82 338.435 1275.95 389.627L1247 408.422L1750.23 808L1761.49 774.514C1793.84 678.269 1812.12 599.427 1817.94 515.695C1823.74 432.161 1817.06 344.887 1800.7 231.988L1797.22 208ZM1755.03 263.238C1768.62 362.749 1773.52 439.584 1768.47 512.25C1763.7 580.867 1749.99 646.633 1725.45 724.972L1332.07 412.615C1396.76 371.833 1452.04 341.783 1513.79 318.592C1579.5 293.916 1653.49 276.656 1755.03 263.238Z" fill="#1E1E1E"/>
<path d="M522.97 1143.44C521.575 1136 426.226 1131.04 431.187 1096.3C436.148 1061.56 522.97 1049.15 557.699 947.407C658.024 653.498 830.729 399 1179 399C1527.27 399 1699.98 653.498 1800.3 947.407C1835.03 1049.15 1921.85 1061.56 1926.81 1096.3C1931.77 1131.04 1836.43 1136 1835.03 1143.44C1833.63 1150.89 1906.97 1190.59 1906.97 1215.41C1906.97 1240.22 1812.7 1272.48 1748.21 1327.07C1591.05 1460.1 1387.45 1538 1179 1538C970.555 1538 766.948 1460.1 609.792 1327.07C545.295 1272.48 451.032 1240.22 451.032 1215.41C451.032 1190.59 524.365 1150.89 522.97 1143.44Z" fill="#7C7C7C"/>
<path d="M874.112 1074C829.464 1074 606.867 1091.7 569.016 1217.95C513.952 1401.62 1041.05 1531 1174.52 1531C1308.13 1531 1826.61 1418.99 1777.77 1217.95C1746.65 1089.87 1517.32 1074 1472.67 1074C1428.02 1074 1422.82 1159.58 1383.37 1141.01C1307.61 1105.34 1280.91 1081.45 1184.17 1081.45C1087.43 1081.45 1038.93 1105.45 963.408 1141.01C923.966 1159.58 918.76 1074 874.112 1074Z" fill="#FEFFFB"/>
<path d="M1135.5 951C1135.5 1082 1059.5 1293.68 897.5 1269.5C735.5 1245.32 542.499 1015.5 574 875.5C605.5 735.5 773.129 799 916.999 799C1060.87 799 1135.5 820 1135.5 951Z" fill="#2A2A2A"/>
<path d="M1207.09 951C1207.09 1082 1283.09 1293.68 1445.09 1269.5C1607.09 1245.32 1800.09 1015.5 1768.59 875.5C1737.09 735.5 1569.46 799 1425.59 799C1281.72 799 1207.09 820 1207.09 951Z" fill="#2A2A2A"/>
<path fill-rule="evenodd" clip-rule="evenodd" d="M759.733 547.438C861.679 444.343 995.706 379 1174 379C1352.29 379 1486.32 444.343 1588.27 547.438C1689.78 650.095 1758.96 789.617 1809.47 937.591C1825.52 984.602 1853.41 1010.92 1878.79 1030.11C1884.52 1034.45 1890.07 1038.38 1895.47 1042.2C1896.14 1042.67 1896.8 1043.14 1897.47 1043.61C1903.37 1047.8 1909.2 1051.98 1914.33 1056.15C1924.07 1064.08 1934.55 1074.51 1936.65 1089.21C1939.09 1106.28 1928.36 1117.91 1918.07 1124.72C1907.78 1131.53 1894.41 1136.14 1882.39 1139.48C1874.64 1141.64 1866.72 1143.46 1859.77 1145C1860.03 1145.2 1860.29 1145.39 1860.55 1145.58L1861.12 1146C1865.34 1149.13 1869.97 1152.56 1874.64 1156.14C1883.86 1163.23 1893.78 1171.35 1901.5 1179.61C1905.37 1183.75 1909.04 1188.29 1911.81 1193.1C1914.53 1197.82 1916.95 1203.77 1916.95 1210.45C1916.95 1218.35 1913.24 1224.81 1909.49 1229.47C1905.66 1234.23 1900.61 1238.61 1895.24 1242.62C1884.52 1250.65 1869.89 1259.16 1854.22 1268.07C1851.74 1269.49 1849.22 1270.91 1846.68 1272.36C1816.27 1289.6 1781.47 1309.33 1752.9 1333.51C1593.14 1468.75 1386.13 1548 1174 1548C961.871 1548 754.861 1468.75 595.099 1333.51C566.534 1309.33 531.731 1289.6 501.323 1272.36C498.775 1270.91 496.257 1269.49 493.777 1268.07C478.114 1259.16 463.479 1250.65 452.756 1242.62C447.39 1238.61 442.337 1234.23 438.51 1229.47C434.761 1224.81 431.048 1218.35 431.048 1210.45C431.048 1203.77 433.467 1197.82 436.186 1193.1C438.959 1188.29 442.632 1183.75 446.501 1179.61C454.222 1171.35 464.145 1163.23 473.361 1156.14C478.026 1152.56 482.659 1149.13 486.883 1146L487.445 1145.59C487.71 1145.39 487.973 1145.2 488.235 1145C481.28 1143.46 473.357 1141.64 465.608 1139.48C453.592 1136.14 440.221 1131.53 429.928 1124.72C419.64 1117.91 408.913 1106.28 411.35 1089.21C413.45 1074.51 423.93 1064.08 433.667 1056.15C438.798 1051.98 444.634 1047.8 450.535 1043.61C451.198 1043.14 451.864 1042.67 452.533 1042.2C457.926 1038.38 463.478 1034.45 469.21 1030.11C494.591 1010.92 522.482 984.602 538.528 937.591C589.036 789.617 658.219 650.095 759.733 547.438ZM780.898 568.384C683.884 666.491 616.533 801.224 566.702 947.216C548.015 1001.97 515.121 1032.73 487.162 1053.87C481.033 1058.51 475.093 1062.71 469.73 1066.51C469.061 1066.98 468.401 1067.45 467.751 1067.91C461.77 1072.15 456.713 1075.79 452.463 1079.25C443.438 1086.6 441.203 1090.76 440.822 1093.43C440.821 1093.44 440.818 1093.45 440.814 1093.47C440.736 1093.9 440.365 1095.92 446.351 1099.88C452.588 1104.01 462.213 1107.62 473.592 1110.79C482.111 1113.16 490.612 1115.03 498.373 1116.74C500.846 1117.28 503.245 1117.81 505.544 1118.33C510.037 1119.35 514.536 1120.44 518.065 1121.62C519.764 1122.19 521.998 1123.03 524.094 1124.26C525.153 1124.88 526.692 1125.89 528.181 1127.43C529.66 1128.96 531.758 1131.71 532.512 1135.73C533.72 1142.18 530.646 1147.03 529.769 1148.38C528.461 1150.38 526.884 1152.07 525.643 1153.29C523.084 1155.82 519.72 1158.54 516.324 1161.16C513.019 1163.71 509.193 1166.54 505.249 1169.46L504.577 1169.96C500.342 1173.09 495.917 1176.36 491.501 1179.76C482.556 1186.64 474.23 1193.55 468.242 1199.96C465.257 1203.15 463.211 1205.84 461.979 1207.98C461.485 1208.83 461.2 1209.47 461.035 1209.9C461.195 1210.14 461.414 1210.44 461.712 1210.81C463.292 1212.77 466.108 1215.42 470.589 1218.77C479.558 1225.49 492.524 1233.1 508.493 1242.18C511.032 1243.63 513.637 1245.1 516.299 1246.61C546.324 1263.62 583.516 1284.69 614.33 1310.77C768.925 1441.64 969.182 1518.22 1174 1518.22C1378.82 1518.22 1579.08 1441.64 1733.67 1310.77C1764.48 1284.69 1801.68 1263.62 1831.7 1246.61C1834.36 1245.1 1836.97 1243.63 1839.51 1242.18C1855.48 1233.1 1868.44 1225.49 1877.41 1218.77C1881.89 1215.42 1884.71 1212.77 1886.29 1210.81C1886.59 1210.44 1886.8 1210.14 1886.96 1209.9C1886.8 1209.47 1886.51 1208.83 1886.02 1207.98C1884.79 1205.84 1882.74 1203.15 1879.76 1199.96C1873.77 1193.55 1865.44 1186.64 1856.5 1179.76C1852.08 1176.36 1847.66 1173.09 1843.42 1169.96L1842.75 1169.46C1838.8 1166.54 1834.98 1163.71 1831.68 1161.16C1828.28 1158.54 1824.92 1155.82 1822.36 1153.29C1821.12 1152.07 1819.54 1150.38 1818.23 1148.38C1817.35 1147.03 1814.28 1142.18 1815.49 1135.73C1816.24 1131.71 1818.34 1128.96 1819.82 1127.43C1821.31 1125.89 1822.85 1124.88 1823.91 1124.26C1826 1123.03 1828.24 1122.19 1829.93 1121.62C1833.46 1120.44 1837.96 1119.35 1842.46 1118.33C1844.76 1117.81 1847.15 1117.28 1849.63 1116.74C1857.39 1115.03 1865.89 1113.16 1874.41 1110.79C1885.79 1107.62 1895.41 1104.01 1901.65 1099.88C1907.63 1095.92 1907.26 1093.9 1907.19 1093.47C1907.18 1093.45 1907.18 1093.44 1907.18 1093.43C1906.8 1090.76 1904.56 1086.6 1895.54 1079.25C1891.29 1075.79 1886.23 1072.15 1880.25 1067.91C1879.6 1067.45 1878.94 1066.99 1878.27 1066.51C1872.91 1062.71 1866.97 1058.51 1860.84 1053.87C1832.88 1032.73 1799.99 1001.97 1781.3 947.216C1731.47 801.224 1664.12 666.491 1567.1 568.384C1470.52 470.713 1344.02 408.783 1174 408.783C1003.98 408.783 877.48 470.713 780.898 568.384Z" fill="#1E1E1E"/>
<path fill-rule="evenodd" clip-rule="evenodd" d="M752.642 541.26C856.385 436.433 992.933 370 1174 370C1355.07 370 1491.62 436.433 1595.36 541.26C1698.38 645.359 1768.18 786.377 1818.92 934.904C1834.09 979.303 1860.31 1004.12 1884.83 1022.65C1890.44 1026.88 1895.86 1030.72 1901.26 1034.54C1901.93 1035.02 1902.6 1035.49 1903.27 1035.96C1909.14 1040.13 1915.24 1044.48 1920.66 1048.89C1930.64 1057.01 1943.87 1069.52 1946.54 1088.22C1949.78 1110.86 1935.25 1125.69 1923.61 1133.38C1911.97 1141.08 1897.34 1146.01 1885.12 1149.41C1884.29 1149.64 1883.46 1149.87 1882.63 1150.09C1891.45 1156.93 1901.07 1164.9 1908.81 1173.18C1912.97 1177.63 1917.19 1182.78 1920.48 1188.48C1923.67 1194.03 1926.94 1201.72 1926.94 1210.78C1926.94 1221.86 1921.73 1230.47 1917.29 1236C1912.71 1241.69 1906.91 1246.63 1901.25 1250.87C1889.94 1259.32 1874.75 1268.13 1859.19 1276.98C1856.74 1278.37 1854.26 1279.78 1851.75 1281.2C1821.2 1298.51 1787.18 1317.79 1759.36 1341.32C1597.86 1477.91 1388.58 1558 1174 1558C959.416 1558 750.136 1477.91 588.638 1341.32C560.817 1317.79 526.802 1298.51 496.246 1281.2C493.743 1279.78 491.263 1278.37 488.812 1276.98C473.25 1268.13 458.057 1259.32 446.749 1250.87C441.088 1246.63 435.288 1241.69 430.711 1236C426.266 1230.47 421.059 1221.86 421.059 1210.78C421.059 1201.72 424.327 1194.03 427.524 1188.48C430.811 1182.78 435.027 1177.63 439.191 1173.18C446.934 1164.9 456.554 1156.93 465.368 1150.09C464.539 1149.87 463.71 1149.64 462.885 1149.41C450.655 1146.01 436.034 1141.08 424.389 1133.38C412.749 1125.69 398.224 1110.86 401.459 1088.22C404.132 1069.52 417.362 1057.01 427.337 1048.89C432.761 1044.48 438.858 1040.13 444.733 1035.96C445.4 1035.49 446.068 1035.02 446.736 1034.54C452.141 1030.72 457.564 1026.88 463.165 1022.65C487.688 1004.12 513.914 979.303 529.081 934.904C579.818 786.377 649.619 645.359 752.642 541.26ZM505.71 1159.75C505.709 1159.75 505.669 1159.73 505.595 1159.7C505.675 1159.73 505.712 1159.75 505.71 1159.75ZM497.751 1125.36C497.808 1125.3 497.838 1125.27 497.837 1125.27C497.836 1125.28 497.808 1125.31 497.751 1125.36ZM787.92 576.145C692.397 672.666 625.652 805.707 576.042 950.933C556.472 1008.22 521.908 1040.45 493.086 1062.22C486.828 1066.95 480.759 1071.24 475.406 1075.03C474.735 1075.51 474.076 1075.97 473.429 1076.43C467.421 1080.69 462.624 1084.14 458.666 1087.36C455.888 1089.62 454.04 1091.37 452.817 1092.67C457.809 1095.69 465.791 1098.73 476.193 1101.63C484.422 1103.92 492.547 1105.7 500.254 1107.4C502.778 1107.95 505.258 1108.5 507.682 1109.05C512.151 1110.06 517.102 1111.24 521.163 1112.6C523.084 1113.24 526.078 1114.34 529.057 1116.08C530.563 1116.96 532.925 1118.51 535.259 1120.92C537.576 1123.31 540.984 1127.74 542.211 1134.28C544.167 1144.71 539.179 1152.4 538.025 1154.17C536.151 1157.04 534.001 1159.3 532.556 1160.72C529.539 1163.69 525.766 1166.72 522.331 1169.37C518.941 1171.99 515.036 1174.87 511.122 1177.77L510.417 1178.29C506.178 1181.42 501.822 1184.64 497.489 1187.97C488.633 1194.77 480.839 1201.28 475.429 1207.07C474.787 1207.75 474.213 1208.39 473.701 1208.98C474.5 1209.64 475.419 1210.36 476.472 1211.15C484.858 1217.42 497.268 1224.72 513.341 1233.86C515.892 1235.31 518.518 1236.8 521.21 1238.32C551.126 1255.25 589.123 1276.75 620.692 1303.45C773.578 1432.76 971.601 1508.4 1174 1508.4C1376.4 1508.4 1574.42 1432.76 1727.31 1303.45C1758.88 1276.75 1796.87 1255.25 1826.79 1238.32C1829.48 1236.8 1832.11 1235.31 1834.66 1233.86C1850.73 1224.72 1863.14 1217.42 1871.53 1211.15C1872.58 1210.36 1873.5 1209.64 1874.3 1208.98C1873.79 1208.39 1873.21 1207.75 1872.57 1207.07C1867.16 1201.28 1859.37 1194.77 1850.51 1187.97C1846.18 1184.64 1841.82 1181.42 1837.58 1178.29L1836.88 1177.77C1832.97 1174.88 1829.06 1171.99 1825.67 1169.37C1822.23 1166.72 1818.46 1163.69 1815.44 1160.72C1814 1159.3 1811.85 1157.04 1809.98 1154.17C1808.82 1152.4 1803.83 1144.71 1805.79 1134.28C1807.02 1127.74 1810.42 1123.31 1812.74 1120.92C1815.08 1118.51 1817.44 1116.96 1818.94 1116.08C1821.92 1114.34 1824.92 1113.24 1826.84 1112.6C1830.9 1111.24 1835.85 1110.06 1840.32 1109.05C1842.74 1108.5 1845.22 1107.95 1847.75 1107.4C1855.45 1105.7 1863.58 1103.92 1871.81 1101.63C1882.21 1098.73 1890.19 1095.69 1895.18 1092.67C1893.96 1091.37 1892.11 1089.62 1889.33 1087.36C1885.38 1084.14 1880.58 1080.69 1874.57 1076.43C1873.92 1075.97 1873.27 1075.51 1872.6 1075.03C1867.24 1071.24 1861.17 1066.95 1854.91 1062.22C1826.09 1040.45 1791.53 1008.22 1771.96 950.933C1722.35 805.707 1655.6 672.666 1560.08 576.145C1465.28 480.352 1341.28 419.603 1174 419.603C1006.72 419.603 882.722 480.352 787.92 576.145ZM1898.56 1090.22C1898.57 1090.22 1898.53 1090.26 1898.45 1090.34C1898.52 1090.26 1898.56 1090.22 1898.56 1090.22ZM1877.81 1213.88C1877.81 1213.88 1877.79 1213.85 1877.76 1213.77C1877.79 1213.84 1877.81 1213.88 1877.81 1213.88ZM469.146 1204.59C469.149 1204.59 469.181 1204.64 469.234 1204.72C469.17 1204.63 469.143 1204.59 469.146 1204.59ZM470.24 1213.77C470.214 1213.84 470.197 1213.88 470.195 1213.88C470.193 1213.88 470.206 1213.85 470.24 1213.77ZM449.439 1090.22C449.443 1090.22 449.485 1090.26 449.551 1090.34C449.467 1090.26 449.434 1090.22 449.439 1090.22Z" fill="#1E1E1E"/>
<path d="M1304 900C1304 943.73 1307.6 987.032 1314.58 1027.43C1321.57 1067.84 1331.8 1104.54 1344.71 1135.47C1357.62 1166.39 1372.94 1190.92 1389.81 1207.65C1406.67 1224.39 1424.75 1233 1443 1233C1461.25 1233 1479.33 1224.39 1496.19 1207.65C1513.06 1190.92 1528.38 1166.39 1541.29 1135.47C1554.2 1104.54 1564.43 1067.83 1571.42 1027.43C1578.4 987.032 1582 943.73 1582 900L1443 900H1304Z" fill="#594B65"/>
<path d="M1315 883C1315 921.871 1318.22 960.362 1324.48 996.274C1330.73 1032.19 1339.9 1064.82 1351.47 1092.3C1363.03 1119.79 1376.75 1141.59 1391.86 1156.47C1406.96 1171.34 1423.15 1179 1439.5 1179C1455.85 1179 1472.04 1171.34 1487.14 1156.47C1502.25 1141.59 1515.97 1119.79 1527.53 1092.3C1539.1 1064.82 1548.27 1032.19 1554.52 996.274C1560.78 960.362 1564 921.871 1564 883L1439.5 883H1315Z" fill="#136B1C"/>
<path fill-rule="evenodd" clip-rule="evenodd" d="M1290 858V882.804C1290 922.934 1293.33 962.78 1299.86 1000.12C1306.38 1037.41 1316.03 1071.84 1328.48 1101.33C1340.85 1130.64 1356.2 1155.55 1374.41 1173.42C1392.76 1191.42 1414.88 1203 1439.5 1203C1464.12 1203 1486.24 1191.42 1504.59 1173.42C1522.8 1155.55 1538.15 1130.64 1550.52 1101.33C1562.97 1071.84 1572.62 1037.41 1579.14 1000.12C1585.67 962.78 1589 922.934 1589 882.804V858L1290 858ZM1563.76 907.608C1564.05 899.372 1564.2 891.096 1564.2 882.804L1314.8 882.804C1314.8 891.096 1314.95 899.372 1315.24 907.608C1316.32 937.9 1319.36 967.668 1324.29 995.846C1330.56 1031.68 1339.74 1064.25 1351.32 1091.68C1362.9 1119.11 1376.65 1140.87 1391.78 1155.71C1406.91 1170.56 1423.12 1178.2 1439.5 1178.2C1455.88 1178.2 1472.09 1170.56 1487.22 1155.71C1502.35 1140.87 1516.1 1119.11 1527.68 1091.68C1539.26 1064.25 1548.44 1031.68 1554.71 995.846C1559.64 967.668 1562.68 937.9 1563.76 907.608Z" fill="#27051B"/>
<path d="M1331 883C1331 917.538 1333.88 951.737 1339.49 983.646C1345.09 1015.55 1353.3 1044.55 1363.66 1068.97C1374.01 1093.39 1386.3 1112.76 1399.83 1125.98C1413.36 1139.2 1427.86 1146 1442.5 1146C1457.14 1146 1471.64 1139.2 1485.17 1125.98C1498.7 1112.76 1510.99 1093.39 1521.34 1068.97C1531.7 1044.55 1539.91 1015.55 1545.51 983.646C1551.12 951.737 1554 917.538 1554 883L1442.5 883H1331Z" fill="#27051B"/>
<path d="M1380 1014.5C1380 1054.54 1394.77 1087 1413 1087C1431.23 1087 1446 1054.54 1446 1014.5C1446 974.459 1431.23 942 1413 942C1394.77 942 1380 974.459 1380 1014.5Z" fill="#FAFAFA"/>
<path fill-rule="evenodd" clip-rule="evenodd" d="M1650.97 865.558C1650.28 851.874 1638.63 841.341 1624.94 842.032L1300 858.446L1302.5 908L1627.45 891.586C1641.13 890.895 1651.66 879.242 1650.97 865.558Z" fill="#27051B"/>
<path d="M1036 900C1036 943.73 1032.47 987.032 1025.61 1027.43C1018.75 1067.84 1008.7 1104.54 996.02 1135.47C983.345 1166.39 968.297 1190.92 951.736 1207.65C935.175 1224.39 917.425 1233 899.5 1233C881.575 1233 863.825 1224.39 847.264 1207.65C830.703 1190.92 815.655 1166.39 802.98 1135.47C790.305 1104.54 780.25 1067.83 773.39 1027.43C766.531 987.032 763 943.73 763 900L899.5 900H1036Z" fill="#594B65"/>
<path d="M1028 883C1028 921.871 1024.77 960.362 1018.48 996.274C1012.2 1032.19 1003 1064.82 991.388 1092.3C979.781 1119.79 966.001 1141.59 950.835 1156.47C935.67 1171.34 919.415 1179 903 1179C886.585 1179 870.33 1171.34 855.165 1156.47C839.999 1141.59 826.219 1119.79 814.612 1092.3C803.004 1064.82 793.797 1032.19 787.515 996.274C781.233 960.362 778 921.871 778 883L903 883H1028Z" fill="#136B1C"/>
<path fill-rule="evenodd" clip-rule="evenodd" d="M1053 858V882.804C1053 922.934 1049.67 962.78 1043.14 1000.12C1036.62 1037.41 1026.97 1071.84 1014.52 1101.33C1002.15 1130.64 986.802 1155.55 968.588 1173.42C950.242 1191.42 928.12 1203 903.5 1203C878.88 1203 856.758 1191.42 838.412 1173.42C820.198 1155.55 804.853 1130.64 792.477 1101.33C780.029 1071.84 770.384 1037.41 763.863 1000.12C757.334 962.78 754 922.934 754 882.804V858L1053 858ZM779.24 907.608C778.947 899.372 778.8 891.096 778.8 882.804L1028.2 882.804C1028.2 891.096 1028.05 899.372 1027.76 907.608C1026.68 937.9 1023.64 967.668 1018.71 995.846C1012.44 1031.68 1003.26 1064.25 991.676 1091.68C980.097 1119.11 966.35 1140.87 951.221 1155.71C936.091 1170.56 919.876 1178.2 903.5 1178.2C887.124 1178.2 870.909 1170.56 855.779 1155.71C840.65 1140.87 826.903 1119.11 815.324 1091.68C803.744 1064.25 794.559 1031.68 788.292 995.846C783.365 967.668 780.318 937.9 779.24 907.608Z" fill="#27051B"/>
<path d="M1012 883C1012 917.538 1009.1 951.737 1003.47 983.646C997.846 1015.55 989.596 1044.55 979.196 1068.97C968.796 1093.39 956.449 1112.76 942.861 1125.98C929.272 1139.2 914.708 1146 900 1146C885.292 1146 870.728 1139.2 857.139 1125.98C843.551 1112.76 831.204 1093.39 820.804 1068.97C810.404 1044.55 802.154 1015.55 796.525 983.646C790.897 951.737 788 917.538 788 883L900 883H1012Z" fill="#27051B"/>
<path d="M903 1014.5C903 1054.54 888.449 1087 870.5 1087C852.551 1087 838 1054.54 838 1014.5C838 974.459 852.551 942 870.5 942C888.449 942 903 974.459 903 1014.5Z" fill="#FAFAFA"/>
<path fill-rule="evenodd" clip-rule="evenodd" d="M691.032 865.558C691.723 851.874 703.375 841.341 717.057 842.032L1042 858.446L1039.5 908L714.554 891.586C700.872 890.895 690.341 879.242 691.032 865.558Z" fill="#27051B"/>
<path d="M949 781.42C949 807.475 884.419 781.42 859.783 781.42C835.146 781.42 778 777.679 778 751.625C778 725.57 790.391 697 859.783 697C929.174 697 949 755.366 949 781.42Z" fill="#FEFFFB"/>
<path d="M1396 781.42C1396 807.475 1460.58 781.42 1485.22 781.42C1509.85 781.42 1567 777.679 1567 751.625C1567 725.57 1554.61 697 1485.22 697C1415.83 697 1396 755.366 1396 781.42Z" fill="#FEFFFB"/>
<path d="M1174.82 1290C1164.92 1290 1098.06 1265.22 1091.19 1226.81C1084.31 1188.4 1270.28 1188.4 1258.46 1226.81C1246.63 1265.22 1184.73 1290 1174.82 1290Z" fill="#27051B"/>
<path d="M1200 1223.5C1200 1227.64 1188.81 1231 1175 1231C1161.19 1231 1150 1227.64 1150 1223.5C1150 1219.36 1161.19 1216 1175 1216C1188.81 1216 1200 1219.36 1200 1223.5Z" fill="white" fill-opacity="0.5"/>
<path fill-rule="evenodd" clip-rule="evenodd" d="M1175 1263C1181.85 1263 1187.4 1268.55 1187.4 1275.39V1304.02L1233.45 1350.94C1238.25 1355.83 1238.17 1363.67 1233.28 1368.46C1228.39 1373.25 1220.54 1373.17 1215.75 1368.28L1175 1326.77L1134.25 1368.28C1129.46 1373.17 1121.61 1373.25 1116.72 1368.46C1111.83 1363.67 1111.75 1355.83 1116.55 1350.94L1162.6 1304.02V1275.39C1162.6 1268.55 1168.15 1263 1175 1263Z" fill="#27051B"/>
</svg>
