<svg width="100" height="100" viewBox="0 0 100 100" fill="none" xmlns="http://www.w3.org/2000/svg">
<path d="M82.9413 82.9415H69.0397V61.171C69.0397 55.9797 68.947 49.2968 61.8095 49.2968C54.569 49.2968 53.4613 54.953 53.4613 60.7931V82.94H39.5597V38.1712H52.9052V44.2893H53.092C54.4276 42.0058 56.3575 40.1272 58.6763 38.8537C60.995 37.5802 63.6158 36.9595 66.2594 37.0576C80.3492 37.0576 82.9471 46.3253 82.9471 58.382L82.9413 82.9415ZM23.8741 32.0516C22.2785 32.0519 20.7187 31.579 19.3919 30.6928C18.0651 29.8066 17.0309 28.5469 16.42 27.0729C15.8092 25.5989 15.6491 23.9769 15.9601 22.4119C16.2711 20.847 17.0392 19.4094 18.1672 18.2809C19.2952 17.1525 20.7325 16.3839 22.2974 16.0724C23.8622 15.7608 25.4843 15.9203 26.9585 16.5306C28.4327 17.1409 29.6928 18.1747 30.5795 19.5012C31.4662 20.8277 31.9396 22.3873 31.9399 23.9829C31.9401 25.0423 31.7316 26.0914 31.3264 27.0702C30.9211 28.049 30.3271 28.9385 29.5781 29.6877C28.8291 30.437 27.9399 31.0314 26.9612 31.4369C25.9825 31.8425 24.9335 32.0514 23.8741 32.0516ZM30.8249 82.9415H16.9088V38.1712H30.8249V82.9415ZM89.8718 3.00743H9.92327C8.10867 2.98695 6.36016 3.68773 5.06198 4.95577C3.7638 6.22381 3.02215 7.95538 3 9.76996V90.0501C3.02139 91.8656 3.76256 93.5984 5.0607 94.8677C6.35884 96.1371 8.10777 96.8392 9.92327 96.8199H89.8718C91.6909 96.8427 93.4447 96.1426 94.748 94.8732C96.0512 93.6039 96.7974 91.8692 96.8226 90.0501V9.76417C96.7967 7.94599 96.05 6.21246 94.7467 4.94445C93.4434 3.67643 91.69 2.97766 89.8718 3.00163" fill="#20349B"/>
</svg>
