<svg width="3736" height="3736" viewBox="0 0 3736 3736" fill="none" xmlns="http://www.w3.org/2000/svg">
<g clip-path="url(#clip0_226_2)">
<path d="M1868.01 0C836.319 0 0 836.319 0 1868.01C0 2899.71 836.319 3736 1868.01 3736C2899.68 3736 3736 2899.71 3736 1868.01C3736 836.319 2899.68 0 1868.01 0ZM1868.01 3429.22C1007.14 3429.22 306.8 2728.85 306.8 1868.01C306.8 1007.17 1007.14 306.8 1868.01 306.8C2728.84 306.8 3429.19 1007.17 3429.19 1868.01C3429.19 2728.85 2728.85 3429.22 1868.01 3429.22Z" fill="#20349B"/>
<path d="M3022.14 1503.16C3021.93 1501.7 3021.57 1500.3 3021.33 1498.85C3020.84 1496.05 3020.32 1493.26 3019.59 1490.52C3019.17 1488.88 3018.56 1487.3 3018.05 1485.72C3017.26 1483.29 3016.47 1480.86 3015.5 1478.49C3014.82 1476.85 3014.03 1475.21 3013.28 1473.63C3012.23 1471.39 3011.15 1469.2 3009.9 1467.07C3008.99 1465.49 3008.03 1463.97 3007.08 1462.46C3005.74 1460.39 3004.38 1458.38 3002.88 1456.43C3001.79 1454.98 3000.64 1453.52 2999.49 1452.12C2997.91 1450.31 2996.26 1448.48 2994.53 1446.77C2993.23 1445.44 2991.95 1444.11 2990.59 1442.88C2988.76 1441.24 2986.88 1439.66 2984.97 1438.15C2983.49 1436.99 2982.02 1435.83 2980.47 1434.74C2979.89 1434.38 2979.38 1433.89 2978.82 1433.53L1923.06 729.685C1889.71 707.449 1846.29 707.449 1812.94 729.685L757.183 1433.52C756.637 1433.88 756.122 1434.37 755.546 1434.74C753.992 1435.83 752.535 1436.98 751.078 1438.14C749.135 1439.66 747.252 1441.24 745.459 1442.87C744.062 1444.1 742.792 1445.43 741.476 1446.77C739.75 1448.48 738.107 1450.3 736.56 1452.12C735.372 1453.52 734.221 1454.98 733.13 1456.43C731.673 1458.37 730.268 1460.38 728.968 1462.45C727.967 1463.97 727.026 1465.48 726.114 1467.07C724.896 1469.19 723.805 1471.38 722.744 1473.62C721.982 1475.2 721.19 1476.84 720.525 1478.48C719.554 1480.85 718.762 1483.28 717.977 1485.72C717.454 1487.29 716.886 1488.87 716.423 1490.51C715.698 1493.25 715.212 1496.04 714.697 1498.84C714.458 1500.3 714.092 1501.69 713.905 1503.15C713.329 1507.4 712.993 1511.71 712.993 1516.09V2219.93C712.993 2224.3 713.322 2228.61 713.905 2232.93C714.092 2234.34 714.458 2235.79 714.697 2237.18C715.212 2239.97 715.698 2242.77 716.423 2245.5C716.886 2247.14 717.454 2248.73 717.977 2250.3C718.762 2252.73 719.554 2255.16 720.525 2257.59C721.19 2259.25 721.982 2260.83 722.744 2262.41C723.813 2264.65 724.904 2266.83 726.114 2269.02C727.026 2270.55 727.967 2272.06 728.968 2273.58C730.268 2275.64 731.673 2277.65 733.13 2279.6C734.221 2281.12 735.379 2282.52 736.56 2283.91C738.114 2285.73 739.75 2287.56 741.476 2289.26C742.784 2290.59 744.062 2291.93 745.459 2293.15C747.252 2294.8 749.135 2296.38 751.078 2297.89C752.535 2299.05 753.999 2300.21 755.546 2301.29C756.122 2301.66 756.637 2302.15 757.183 2302.5L1812.94 3006.34C1829.61 3017.45 1848.82 3023.05 1868.01 3023.05C1887.19 3023.05 1906.38 3017.45 1923.07 3006.34L2978.82 2302.5C2979.38 2302.15 2979.89 2301.66 2980.47 2301.29C2982.02 2300.2 2983.48 2299.05 2984.97 2297.89C2986.88 2296.38 2988.76 2294.8 2990.59 2293.15C2991.95 2291.94 2993.23 2290.59 2994.53 2289.26C2996.26 2287.56 2997.91 2285.73 2999.49 2283.91C3000.64 2282.52 3001.79 2281.12 3002.88 2279.6C3004.38 2277.65 3005.75 2275.65 3007.08 2273.58C3008.03 2272.06 3008.99 2270.55 3009.9 2269.02C3011.15 2266.83 3012.23 2264.65 3013.28 2262.41C3014.03 2260.83 3014.82 2259.25 3015.5 2257.59C3016.47 2255.17 3017.25 2252.73 3018.05 2250.3C3018.56 2248.73 3019.17 2247.14 3019.59 2245.5C3020.32 2242.77 3020.84 2239.97 3021.33 2237.18C3021.57 2235.78 3021.93 2234.33 3022.14 2232.93C3022.69 2228.61 3023.03 2224.3 3023.03 2219.93V1516.09C3023.03 1511.72 3022.69 1507.41 3022.14 1503.16ZM1967.27 997.758L2745.02 1516.22L2397.62 1748.62L1967.27 1460.75V997.758ZM1768.73 997.758V1460.75L1338.41 1748.62L990.982 1516.22L1768.73 997.758ZM911.509 1701.9L1159.86 1868.01L911.509 2034.14V1701.9ZM1768.73 2738.27L990.989 2219.8L1338.41 1987.47L1768.74 2275.29V2738.27H1768.73ZM1868.01 2102.85L1516.91 1868.01L1868.01 1633.18L2219.08 1868.01L1868.01 2102.85ZM1967.27 2738.27V2275.29L2397.62 1987.47L2745.02 2219.8L1967.27 2738.27ZM2824.49 2034.13L2576.17 1868.01L2824.49 1701.9V2034.13Z" fill="#20349B"/>
</g>
<defs>
<clipPath id="clip0_226_2">
<rect width="3736" height="3736" fill="white"/>
</clipPath>
</defs>
</svg>
