<svg width="500" height="500" viewBox="0 0 500 500" fill="none" xmlns="http://www.w3.org/2000/svg">
<path d="M296.421 47.5845C270.857 47.5845 250.134 68.3079 250.134 93.8715V406.136C250.134 430.102 268.348 449.814 291.688 452.184C293.244 452.342 294.823 452.423 296.421 452.423H430.446C456.009 452.423 476.733 431.7 476.733 406.136V337.051C476.733 311.487 456.009 290.764 430.446 290.764C404.882 290.764 384.159 311.487 384.159 337.051V359.849H342.708V140.158H384.159V162.957C384.159 188.52 404.882 209.244 430.446 209.244C456.009 209.244 476.733 188.52 476.733 162.957V93.8715C476.733 93.6718 476.732 93.4723 476.729 93.2732C476.691 90.2865 476.37 87.3679 475.792 84.543C471.476 63.4508 452.814 47.5845 430.446 47.5845C430.436 47.5845 430.427 47.5845 430.417 47.5845L296.421 47.5845Z" fill="#D60270"/>
<path fill-rule="evenodd" clip-rule="evenodd" d="M190.904 47H190.896L56.8789 47C38.3774 47 23.3789 61.9985 23.3789 80.5L23.3789 106.074C23.3789 124.576 38.3774 139.574 56.8789 139.574L157.404 139.574V359.264H115.953V323.679C115.953 305.178 100.954 290.179 82.4529 290.179H56.8789C38.3774 290.179 23.3789 305.178 23.3789 323.679V392.751C23.3789 392.756 23.3789 392.76 23.3789 392.765L23.3789 418.339C23.3789 420.651 23.6133 422.909 24.0595 425.09C27.1833 440.355 40.6901 451.839 56.8789 451.839H82.4529H190.904H216.478C234.979 451.839 249.978 436.84 249.978 418.339V392.764V106.074V80.5C249.978 61.9985 234.979 47 216.478 47H190.904Z" fill="#0038A8"/>
</svg>
